<?xml version="1.0" encoding="UTF-8" standalone="no"?>
<!-- Created with Inkscape (http://www.inkscape.org/) -->

<svg
   xmlns:dc="http://purl.org/dc/elements/1.1/"
   xmlns:cc="http://creativecommons.org/ns#"
   xmlns:rdf="http://www.w3.org/1999/02/22-rdf-syntax-ns#"
   xmlns:svg="http://www.w3.org/2000/svg"
   xmlns="http://www.w3.org/2000/svg"
   xmlns:sodipodi="http://sodipodi.sourceforge.net/DTD/sodipodi-0.dtd"
   xmlns:inkscape="http://www.inkscape.org/namespaces/inkscape"
   width="210mm"
   height="297mm"
   viewBox="0 0 210 297"
   version="1.1"
   id="svg8"
   inkscape:version="0.92.2 (5c3e80d, 2017-08-06)"
   sodipodi:docname="created_image.svg">
  <defs
     id="defs2" />
  <sodipodi:namedview
     id="base"
     pagecolor="#ffffff"
     bordercolor="#666666"
     borderopacity="1.0"
     inkscape:pageopacity="0.0"
     inkscape:pageshadow="2"
     inkscape:zoom="0.35"
     inkscape:cx="400"
     inkscape:cy="560"
     inkscape:document-units="mm"
     inkscape:current-layer="layer1"
     showgrid="false"
     inkscape:window-width="1920"
     inkscape:window-height="1017"
     inkscape:window-x="-8"
     inkscape:window-y="-8"
     inkscape:window-maximized="1" />
  <metadata
     id="metadata5">
    <rdf:RDF>
      <cc:Work
         rdf:about="">
        <dc:format>image/svg+xml</dc:format>
        <dc:type
           rdf:resource="http://purl.org/dc/dcmitype/StillImage" />
        <dc:title></dc:title>
      </cc:Work>
    </rdf:RDF>
  </metadata>
  <g
     inkscape:label="Layer 1"
     inkscape:groupmode="layer"
     id="layer1">
    <ellipse
       style="fill:#000000;fill-opacity:1;stroke-width:0.40841049"
       id="path10"
       cx="101.29761"
       cy="146.56546"
       rx="71.059525"
       ry="69.547623" />
    <ellipse
       style="fill:#ffcc00;fill-opacity:1;stroke-width:0.40841049"
       id="path14"
       cx="103.68617"
       cy="142.57506"
       rx="10.151361"
       ry="9.691062" />
    <ellipse
       style="fill:#ffcc00;fill-opacity:1;stroke-width:0.40841049"
       id="path18"
       cx="104.88044"
       cy="173.92845"
       rx="16.122749"
       ry="17.101873" />
    <ellipse
       style="fill:#ffff00;fill-opacity:1;stroke-width:0.40841049"
       id="path20"
       cx="103.68617"
       cy="123.19292"
       rx="5.3742495"
       ry="5.1305618" />
    <path
       style="fill:none;stroke:#000000;stroke-width:0.40841049px;stroke-linecap:butt;stroke-linejoin:miter;stroke-opacity:1"
       d="m 126.9746,138.58462 c 5.62988,0.32601 -1.40747,-4.35699 0,-5.70064 0.2815,-0.26873 0.91278,0.26873 1.19428,0 0.79461,-0.75858 -0.79461,-1.52166 0,-2.28024 0.28149,-0.26873 0.91278,0.26873 1.19427,0 0.2815,-0.26873 -0.28149,-0.87139 0,-1.14014 0.2815,-0.26871 0.79619,0 1.19427,0 0.39811,0 1.19429,-0.38003 1.19429,0 0,0.38005 -1.19429,0.38005 -1.19429,0 0,-0.53744 0.69074,-0.89976 1.19429,-1.14012 0.71213,-0.33992 1.82558,0.53746 2.38857,0 0.28149,-0.26873 -0.28151,-0.87139 0,-1.14012 0.28149,-0.26873 0.83821,0.16996 1.19427,0 0.50356,-0.24036 0.69072,-0.89976 1.19428,-1.14012 0.35606,-0.16996 0.91278,0.26873 1.19427,0 0.28149,-0.26873 -0.28149,-0.87139 0,-1.14012 0.28149,-0.26873 0.79619,0 1.19427,0 0.39811,0 0.79619,0 1.19429,0 3.18474,0 -0.3981,0.38003 1.19428,-1.14014 0.59714,-0.57005 2.98569,0.57007 3.58284,0 0.28149,-0.26873 -0.2815,-0.87139 0,-1.14012 0.28149,-0.26873 0.79618,0 1.19427,0 0.39809,0 1.19427,-0.38004 1.19427,0 0,0.38005 -1.19427,0.38005 -1.19427,0 0,-1.40885 1.67481,-1.14012 2.38855,-1.14012"
       id="path35"
       inkscape:connector-curvature="0" />
    <path
       style="fill:#008080;stroke:#000000;stroke-width:0.10954717px;stroke-linecap:butt;stroke-linejoin:miter;stroke-opacity:1"
       d="M 47.671482,157.87282 C 54.833416,115.25577 87.563423,119.2025 87.563423,119.2025"
       id="path39"
       inkscape:connector-curvature="0" />
    <path
       style="fill:#008080;stroke:#000000;stroke-width:0.11781534px;stroke-linecap:butt;stroke-linejoin:miter;stroke-opacity:1"
       d="M 157.42055,158.89822 C 149.59386,113.7919 113.82596,117.96915 113.82596,117.96915"
       id="path39-7"
       inkscape:connector-curvature="0" />
    <path
       style="fill:none;stroke:#000000;stroke-width:0.26458332px;stroke-linecap:butt;stroke-linejoin:miter;stroke-opacity:1"
       d="m -240.01488,85.333351 c 3.56359,0.216159 -0.8909,-2.888871 0,-3.779771 0.17818,-0.178181 0.57777,0.178181 0.75596,0 0.50297,-0.50297 -0.50298,-1.008931 0,-1.511901 0.17817,-0.178179 0.57777,0.178181 0.75595,0 0.17818,-0.178179 -0.17818,-0.577769 0,-0.755959 0.17818,-0.17817 0.50396,0 0.75595,0 0.25198,0 0.75595,-0.25198 0.75595,0 0,0.25199 -0.75595,0.25199 -0.75595,0 0,-0.35635 0.43721,-0.59658 0.75595,-0.75595 0.45077,-0.22538 1.15555,0.35636 1.51191,0 0.17818,-0.17818 -0.17819,-0.57777 0,-0.75595 0.17818,-0.17818 0.53057,0.11269 0.75595,0 0.31874,-0.15937 0.43721,-0.59658 0.75595,-0.75595 0.22538,-0.11269 0.57777,0.17818 0.75595,0 0.17818,-0.17818 -0.17818,-0.57777 0,-0.75595 0.17818,-0.17818 0.50397,0 0.75595,0 0.25199,0 0.50397,0 0.75596,0 2.01587,0 -0.25199,0.25198 0.75595,-0.75596 0.37798,-0.37797 1.88988,0.37798 2.26786,0 0.17818,-0.17818 -0.17818,-0.57777 0,-0.75595 0.17818,-0.17818 0.50397,0 0.75595,0 0.25198,0 0.75595,-0.25198 0.75595,0 0,0.25199 -0.75595,0.25199 -0.75595,0 0,-0.93413 1.06012,-0.75595 1.5119,-0.75595"
       id="path35-4"
       inkscape:connector-curvature="0" />
    <path
       style="fill:#008080;stroke:#000000;stroke-width:0.0642009px;stroke-linecap:butt;stroke-linejoin:miter;stroke-opacity:1"
       d="m 113.82596,117.96915 c 1.16539,-22.542385 22.84363,-22.446835 22.84363,-22.446835"
       id="path39-2"
       inkscape:connector-curvature="0"
       inkscape:transform-center-x="153.14664"
       inkscape:transform-center-y="41.05046" />
    <path
       style="fill:#008080;stroke:#000000;stroke-width:0.06712519px;stroke-linecap:butt;stroke-linejoin:miter;stroke-opacity:1"
       d="M 60.746676,97.603965 C 90.681189,101.7883 87.563423,119.2025 87.563423,119.2025"
       id="path39-42"
       inkscape:connector-curvature="0"
       inkscape:transform-center-x="143.32906"
       inkscape:transform-center-y="66.782683" />
  </g>
</svg>
